#!OML:ASF X:\für Bonn\!DataBase\2005_08_12_Daniel\c3d\Daniel.ASF
:FULLY-SPECIFIED
:DEGREES
80
root -0.0939851 6.34174 -0.898468 5.06495 -85.9403 -40.1323
lowerback 63.9397 -5.02921 6.13041
upperback 2.74202 -4.16897 -3.24676
thorax -19.5096 -2.69454 -3.99815
lowerneck 3.23424 0.78515 -1.30064
upperneck -0.456725 0.994891 0.278243
head -0.67842 0.495391 0.283337
rclavicle 2.14687e-014 2.94201e-014
rhumerus 70.2936 1.21528 -91.2294
rradius 4.1713
rwrist 54.0852
rhand -21.5019 8.4248
rfingers 7.12502
rthumb 4.88971 -21.4988
lclavicle 2.14687e-014 2.94201e-014
lhumerus 66.053 2.92977 92.3253
lradius 10.5495
lwrist -70.621
lhand -22.7431 -6.57777
lfingers 7.12502
lthumb 3.69118 23.37
rfemur 24.5734 -50.5824 -136.944
rtibia 155.808
rfoot -62.3816 83.9802
rtoes 0.188243
lfemur 2.34249 67.8987 115.177
ltibia 153.781
lfoot 9.39586 -85.2307
ltoes 10.9679
81
root -0.0937469 6.31797 -0.900592 4.83599 -85.9064 -39.7794
lowerback 63.7819 -5.05598 6.14365
upperback 2.71787 -4.18428 -3.23007
thorax -19.5389 -2.69801 -3.97801
lowerneck 2.98393 0.776483 -1.27136
upperneck -0.187654 0.985996 0.13378
head -0.552156 0.491013 0.235488
rclavicle 1.15295e-014 7.15625e-015
rhumerus 70.2233 1.26361 -91.199
rradius 4.2082
rwrist 54.1188
rhand -21.5864 8.37223
rfingers 7.12502
rthumb 4.80815 -21.5532
lclavicle 1.15295e-014 7.15625e-015
lhumerus 66.3746 3.44004 93.4115
lradius 9.85093
lwrist -71.6935
lhand -23.38 -6.67781
lfingers 7.12502
lthumb 3.07615 23.2797
rfemur 24.2195 -50.9571 -136.895
rtibia 155.97
rfoot -57.3967 84.7787
rtoes 0.251145
lfemur 1.06374 68.2238 114.169
ltibia 153.97
lfoot 13.3082 -84.9909
ltoes 11.0894
82
root -0.0894162 6.36412 -0.907515 4.8932 -85.8812 -39.7037
lowerback 63.6106 -5.08692 6.17924
upperback 2.69407 -4.1934 -3.2305
thorax -19.5688 -2.70047 -3.99176
lowerneck 2.86298 0.770268 -1.22895
upperneck -0.0137867 0.979657 0.0244583
head -0.477531 0.487696 0.195909
rclavicle -2.18663e-015 7.95139e-016
rhumerus 70.0157 1.29441 -91.1986
rradius 4.40322
rwrist 54.2792
rhand -21.6098 8.26757
rfingers 7.12502
rthumb 4.78555 -21.6584
lclavicle -2.18663e-015 7.95139e-016
lhumerus 66.5669 3.92539 94.4751
lradius 9.35592
lwrist -72.6416
lhand -24.0591 -6.7589
lfingers 7.12502
lthumb 2.42023 23.2071
rfemur 24.9069 -51.091 -136.724
rtibia 155.579
rfoot -51.5514 84.9937
rtoes 0.42352
lfemur 0.80362 68.3027 113.186
ltibia 153.601
lfoot 13.4437 -84.7403
ltoes 11.2931
83
root -0.0840985 6.43599 -0.913951 5.0101 -85.8411 -39.6513
lowerback 63.4045 -5.12517 6.22476
upperback 2.65962 -4.1998 -3.21816
thorax -19.6098 -2.70171 -3.99658
lowerneck 2.83461 0.775303 -1.26065
upperneck 0.127937 0.984715 -0.0498614
head -0.429107 0.489762 0.178723
rclavicle 1.64991e-014 1.11319e-014
rhumerus 69.7636 1.33119 -91.178
rradius 4.59676
rwrist 54.4386
rhand -21.6589 8.23709
rfingers 7.12502
rthumb 4.73809 -21.6899
lclavicle 1.64991e-014 1.11319e-014
lhumerus 66.6314 4.42191 95.5577
lradius 9.07032
lwrist -73.5231
lhand -24.6471 -6.83019
lfingers 7.12502
lthumb 1.85243 23.1415
rfemur 25.6636 -51.3714 -136.119
rtibia 154.985
rfoot -44.17 84.9843
rtoes 0.615875
lfemur 0.177064 68.3706 111.407
ltibia 153.044
lfoot 12.4148 -84.3104
ltoes 11.5045
84
root -0.0787284 6.52669 -0.920597 4.66146 -85.802 -39.108
lowerback 63.1492 -5.15844 6.25668
upperback 2.63314 -4.21569 -3.22108
thorax -19.6424 -2.70514 -4.00978
lowerneck 2.92066 0.771114 -1.30097
upperneck 0.177767 0.975429 -0.105878
head -0.427899 0.484969 0.168233
rclavicle 6.55989e-015 -7.95139e-016
rhumerus 69.5024 1.3692 -91.173
rradius 4.78093
rwrist 54.6918
rhand -21.6794 8.14108
rfingers 7.12502
rthumb 4.71837 -21.7864
lclavicle 6.55989e-015 -7.95139e-016
lhumerus 66.6922 4.8936 96.638
lradius 8.85196
lwrist -74.4069
lhand -25.0163 -6.88062
lfingers 7.12502
lthumb 1.49582 23.0939
rfemur 26.4381 -51.7655 -135.23
rtibia 154.223
rfoot -34.5054 84.8795
rtoes 0.809761
lfemur -0.786895 68.4088 108.915
ltibia 152.351
lfoot 10.6427 -83.7494
ltoes 11.7485
85
root -0.0729841 6.62838 -0.927205 4.62069 -85.768 -38.8503
lowerback 62.8457 -5.17803 6.28934
upperback 2.6202 -4.21373 -3.20493
thorax -19.6516 -2.70155 -4.01123
lowerneck 2.96672 0.780108 -1.35339
upperneck 0.283031 0.984094 -0.143888
head -0.403401 0.488589 0.165144
rclavicle 1.80894e-014 1.59028e-014
rhumerus 69.3211 1.41098 -91.1448
rradius 4.87163
rwrist 54.8821
rhand -21.6229 8.10424
rfingers 7.12502
rthumb 4.77286 -21.822
lclavicle 1.80894e-014 1.59028e-014
lhumerus 66.7171 5.37191 97.7392
lradius 8.82846
lwrist -75.4079
lhand -25.0641 -6.84323
lfingers 7.12502
lthumb 1.44968 23.1316
rfemur 27.039 -52.3604 -133.961
rtibia 153.377
rfoot -24.2187 84.5794
rtoes 0.962994
lfemur -2.02503 68.4119 106.021
ltibia 151.566
lfoot 10.0381 -83.1196
ltoes 12.0259
86
root -0.0665674 6.73846 -0.933812 4.73194 -85.733 -38.7145
lowerback 62.4959 -5.20051 6.32854
upperback 2.60182 -4.20966 -3.18231
thorax -19.6649 -2.69694 -4.00992
lowerneck 3.01727 0.784678 -1.43836
upperneck 0.371665 0.985748 -0.164121
head -0.385023 0.488612 0.172808
rclavicle 1.31198e-014 3.49861e-014
rhumerus 69.1671 1.49359 -91.1244
rradius 4.89556
rwrist 55.0759
rhand -21.5523 8.0906
rfingers 7.12502
rthumb 4.8411 -21.8341
lclavicle 1.31198e-014 3.49861e-014
lhumerus 66.6623 5.87163 98.8429
lradius 9.06923
lwrist -76.5873
lhand -24.7007 -6.69821
lfingers 7.12502
lthumb 1.80059 23.2739
rfemur 27.5086 -53.0134 -132.477
rtibia 152.484
rfoot -15.599 84.1341
rtoes 1.05062
lfemur -3.72498 68.4329 102.574
ltibia 150.73
lfoot 9.32697 -82.3906
ltoes 12.3824
